<?xml version="1.0" ?><svg height="24px" version="1.1" viewBox="0 0 24 24" width="24px" xmlns="http://www.w3.org/2000/svg" xmlns:sketch="http://www.bohemiancoding.com/sketch/ns" xmlns:xlink="http://www.w3.org/1999/xlink"><title/><desc/><defs/><g fill="none" fill-rule="evenodd" id="miu" stroke="none" stroke-width="1"><g id="Artboard-1" transform="translate(-395.000000, -659.000000)"><g id="slice" transform="translate(215.000000, 119.000000)"/><path d="M407,682 C413.075133,682 418,677.075133 418,671 C418,664.924867 413.075133,660 407,660 C400.924867,660 396,664.924867 396,671 C396,677.075133 400.924867,682 407,682 Z M412.679245,670.437702 L412.679245,669.114569 L411.735849,669.114569 L411.735849,670.437702 L410.377358,670.437702 L410.377358,671.382796 L411.735849,671.382796 L411.735849,672.743732 L412.679245,672.743732 L412.679245,671.382796 L414,671.382796 L414,670.437702 L412.679245,670.437702 Z M405.811321,670.362094 L405.811321,671.874245 C405.811321,671.874245 407.275623,671.872279 407.871849,671.872279 C407.548981,672.852569 407.046943,673.386396 405.811321,673.386396 C404.560868,673.386396 403.584906,672.370873 403.584906,671.11817 C403.584906,669.865466 404.560868,668.849943 405.811321,668.849943 C406.472453,668.849943 406.899434,669.082738 407.291094,669.407208 C407.604604,669.093135 407.578415,669.048375 408.376038,668.293774 C407.698943,667.676362 406.799019,667.299988 405.811321,667.299988 C403.706377,667.299988 402,669.009437 402,671.11817 C402,673.226864 403.706377,674.936351 405.811321,674.936351 C408.957623,674.936351 409.726642,672.191797 409.471698,670.362094 L405.811321,670.362094 Z" fill="#000000" id="circle-social-google-plus-glyph"/></g></g></svg>